# Tiled2Unity generated file. Do not modify by hand.
# Wavefront file for 'TestRPG_mesh_0004.obj'

# Vertices (Count = 80)
v -304 -448 0
v -320 -448 0
v -320 -432 0
v -304 -432 0
v -288 -448 0
v -304 -448 0
v -304 -432 0
v -288 -432 0
v -320 -464 0
v -336 -464 0
v -336 -448 0
v -320 -448 0
v -304 -464 0
v -320 -464 0
v -320 -448 0
v -304 -448 0
v -288 -464 0
v -304 -464 0
v -304 -448 0
v -288 -448 0
v -272 -464 0
v -288 -464 0
v -288 -448 0
v -272 -448 0
v -320 -480 0
v -336 -480 0
v -336 -464 0
v -320 -464 0
v -304 -480 0
v -320 -480 0
v -320 -464 0
v -304 -464 0
v -288 -480 0
v -304 -480 0
v -304 -464 0
v -288 -464 0
v -272 -480 0
v -288 -480 0
v -288 -464 0
v -272 -464 0
v -320 -496 0
v -336 -496 0
v -336 -480 0
v -320 -480 0
v -304 -496 0
v -320 -496 0
v -320 -480 0
v -304 -480 0
v -288 -496 0
v -304 -496 0
v -304 -480 0
v -288 -480 0
v -272 -496 0
v -288 -496 0
v -288 -480 0
v -272 -480 0
v -320 -512 0
v -336 -512 0
v -336 -496 0
v -320 -496 0
v -304 -512 0
v -320 -512 0
v -320 -496 0
v -304 -496 0
v -288 -512 0
v -304 -512 0
v -304 -496 0
v -288 -496 0
v -272 -512 0
v -288 -512 0
v -288 -496 0
v -272 -496 0
v -304 -544 0
v -320 -544 0
v -320 -528 0
v -304 -528 0
v -288 -544 0
v -304 -544 0
v -304 -528 0
v -288 -528 0

# Texture cooridinates (Count = 36)
vt 0.3688017 0.2908745
vt 0.3853306 0.2908745
vt 0.3853306 0.3212928
vt 0.3688017 0.3212928
vt 0.3512397 0.2908745
vt 0.3677686 0.2908745
vt 0.3677686 0.3212928
vt 0.3512397 0.3212928
vt 0.3688017 0.2585551
vt 0.3853306 0.2585551
vt 0.3853306 0.2889734
vt 0.3688017 0.2889734
vt 0.3512397 0.2585551
vt 0.3677686 0.2585551
vt 0.3677686 0.2889734
vt 0.3512397 0.2889734
vt 0.3688017 0.2262357
vt 0.3853306 0.2262357
vt 0.3853306 0.256654
vt 0.3688017 0.256654
vt 0.3512397 0.2262357
vt 0.3677686 0.2262357
vt 0.3677686 0.256654
vt 0.3512397 0.256654
vt 0.7376033 0.9695817
vt 0.7541322 0.9695817
vt 0.7541322 1
vt 0.7376033 1
vt 0.5092975 0.7110266
vt 0.5258265 0.7110266
vt 0.5258265 0.7414448
vt 0.5092975 0.7414448
vt 0.4917355 0.7110266
vt 0.5082645 0.7110266
vt 0.5082645 0.7414448
vt 0.4917355 0.7414448

# Normal
vn 0 0 -1

# Mesh description
g TestRPG_mesh_0004

# Faces
f 1/1/1 2/2/1 3/3/1 4/4/1
f 5/5/1 6/6/1 7/7/1 8/8/1
f 9/1/1 10/2/1 11/3/1 12/4/1
f 13/9/1 14/10/1 15/11/1 16/12/1
f 17/13/1 18/14/1 19/15/1 20/16/1
f 21/5/1 22/6/1 23/7/1 24/8/1
f 25/9/1 26/10/1 27/11/1 28/12/1
f 29/9/1 30/10/1 31/11/1 32/12/1
f 33/13/1 34/14/1 35/15/1 36/16/1
f 37/13/1 38/14/1 39/15/1 40/16/1
f 41/9/1 42/10/1 43/11/1 44/12/1
f 45/17/1 46/18/1 47/19/1 48/20/1
f 49/21/1 50/22/1 51/23/1 52/24/1
f 53/13/1 54/14/1 55/15/1 56/16/1
f 57/17/1 58/18/1 59/19/1 60/20/1
f 61/25/1 62/26/1 63/27/1 64/28/1
f 65/25/1 66/26/1 67/27/1 68/28/1
f 69/21/1 70/22/1 71/23/1 72/24/1
f 73/29/1 74/30/1 75/31/1 76/32/1
f 77/33/1 78/34/1 79/35/1 80/36/1

