# Tiled2Unity generated file. Do not modify by hand.
# Wavefront file for 'TestRPG_mesh_0003.obj'

# Vertices (Count = 588)
v -544 -128 0
v -560 -128 0
v -560 -112 0
v -544 -112 0
v -544 -144 0
v -560 -144 0
v -560 -128 0
v -544 -128 0
v -272 -144 0
v -288 -144 0
v -288 -128 0
v -272 -128 0
v -576 -160 0
v -592 -160 0
v -592 -144 0
v -576 -144 0
v -448 -160 0
v -464 -160 0
v -464 -144 0
v -448 -144 0
v -368 -160 0
v -384 -160 0
v -384 -144 0
v -368 -144 0
v -272 -160 0
v -288 -160 0
v -288 -144 0
v -272 -144 0
v -576 -176 0
v -592 -176 0
v -592 -160 0
v -576 -160 0
v -448 -176 0
v -464 -176 0
v -464 -160 0
v -448 -160 0
v -368 -176 0
v -384 -176 0
v -384 -160 0
v -368 -160 0
v -240 -176 0
v -256 -176 0
v -256 -160 0
v -240 -160 0
v -240 -192 0
v -256 -192 0
v -256 -176 0
v -240 -176 0
v -496 -208 0
v -512 -208 0
v -512 -192 0
v -496 -192 0
v -480 -208 0
v -496 -208 0
v -496 -192 0
v -480 -192 0
v -464 -208 0
v -480 -208 0
v -480 -192 0
v -464 -192 0
v -448 -208 0
v -464 -208 0
v -464 -192 0
v -448 -192 0
v -432 -208 0
v -448 -208 0
v -448 -192 0
v -432 -192 0
v -416 -208 0
v -432 -208 0
v -432 -192 0
v -416 -192 0
v -400 -208 0
v -416 -208 0
v -416 -192 0
v -400 -192 0
v -384 -208 0
v -400 -208 0
v -400 -192 0
v -384 -192 0
v -368 -208 0
v -384 -208 0
v -384 -192 0
v -368 -192 0
v -352 -208 0
v -368 -208 0
v -368 -192 0
v -352 -192 0
v -336 -208 0
v -352 -208 0
v -352 -192 0
v -336 -192 0
v -320 -208 0
v -336 -208 0
v -336 -192 0
v -320 -192 0
v -304 -208 0
v -320 -208 0
v -320 -192 0
v -304 -192 0
v -288 -208 0
v -304 -208 0
v -304 -192 0
v -288 -192 0
v -272 -208 0
v -288 -208 0
v -288 -192 0
v -272 -192 0
v -608 -224 0
v -624 -224 0
v -624 -208 0
v -608 -208 0
v -496 -224 0
v -512 -224 0
v -512 -208 0
v -496 -208 0
v -272 -224 0
v -288 -224 0
v -288 -208 0
v -272 -208 0
v -608 -240 0
v -624 -240 0
v -624 -224 0
v -608 -224 0
v -496 -240 0
v -512 -240 0
v -512 -224 0
v -496 -224 0
v -272 -240 0
v -288 -240 0
v -288 -224 0
v -272 -224 0
v -496 -256 0
v -512 -256 0
v -512 -240 0
v -496 -240 0
v -272 -256 0
v -288 -256 0
v -288 -240 0
v -272 -240 0
v -224 -256 0
v -240 -256 0
v -240 -240 0
v -224 -240 0
v -672 -272 0
v -688 -272 0
v -688 -256 0
v -672 -256 0
v -656 -272 0
v -672 -272 0
v -672 -256 0
v -656 -256 0
v -640 -272 0
v -656 -272 0
v -656 -256 0
v -640 -256 0
v -624 -272 0
v -640 -272 0
v -640 -256 0
v -624 -256 0
v -608 -272 0
v -624 -272 0
v -624 -256 0
v -608 -256 0
v -592 -272 0
v -608 -272 0
v -608 -256 0
v -592 -256 0
v -560 -272 0
v -576 -272 0
v -576 -256 0
v -560 -256 0
v -496 -272 0
v -512 -272 0
v -512 -256 0
v -496 -256 0
v -272 -272 0
v -288 -272 0
v -288 -256 0
v -272 -256 0
v -224 -272 0
v -240 -272 0
v -240 -256 0
v -224 -256 0
v -128 -272 0
v -144 -272 0
v -144 -256 0
v -128 -256 0
v -672 -288 0
v -688 -288 0
v -688 -272 0
v -672 -272 0
v -656 -288 0
v -672 -288 0
v -672 -272 0
v -656 -272 0
v -640 -288 0
v -656 -288 0
v -656 -272 0
v -640 -272 0
v -624 -288 0
v -640 -288 0
v -640 -272 0
v -624 -272 0
v -608 -288 0
v -624 -288 0
v -624 -272 0
v -608 -272 0
v -592 -288 0
v -608 -288 0
v -608 -272 0
v -592 -272 0
v -560 -288 0
v -576 -288 0
v -576 -272 0
v -560 -272 0
v -496 -288 0
v -512 -288 0
v -512 -272 0
v -496 -272 0
v -272 -288 0
v -288 -288 0
v -288 -272 0
v -272 -272 0
v -128 -288 0
v -144 -288 0
v -144 -272 0
v -128 -272 0
v -672 -304 0
v -688 -304 0
v -688 -288 0
v -672 -288 0
v -656 -304 0
v -672 -304 0
v -672 -288 0
v -656 -288 0
v -640 -304 0
v -656 -304 0
v -656 -288 0
v -640 -288 0
v -624 -304 0
v -640 -304 0
v -640 -288 0
v -624 -288 0
v -608 -304 0
v -624 -304 0
v -624 -288 0
v -608 -288 0
v -592 -304 0
v -608 -304 0
v -608 -288 0
v -592 -288 0
v -496 -304 0
v -512 -304 0
v -512 -288 0
v -496 -288 0
v -272 -304 0
v -288 -304 0
v -288 -288 0
v -272 -288 0
v -672 -320 0
v -688 -320 0
v -688 -304 0
v -672 -304 0
v -656 -320 0
v -672 -320 0
v -672 -304 0
v -656 -304 0
v -640 -320 0
v -656 -320 0
v -656 -304 0
v -640 -304 0
v -624 -320 0
v -640 -320 0
v -640 -304 0
v -624 -304 0
v -608 -320 0
v -624 -320 0
v -624 -304 0
v -608 -304 0
v -592 -320 0
v -608 -320 0
v -608 -304 0
v -592 -304 0
v -496 -320 0
v -512 -320 0
v -512 -304 0
v -496 -304 0
v -272 -320 0
v -288 -320 0
v -288 -304 0
v -272 -304 0
v -672 -336 0
v -688 -336 0
v -688 -320 0
v -672 -320 0
v -656 -336 0
v -672 -336 0
v -672 -320 0
v -656 -320 0
v -640 -336 0
v -656 -336 0
v -656 -320 0
v -640 -320 0
v -624 -336 0
v -640 -336 0
v -640 -320 0
v -624 -320 0
v -608 -336 0
v -624 -336 0
v -624 -320 0
v -608 -320 0
v -592 -336 0
v -608 -336 0
v -608 -320 0
v -592 -320 0
v -544 -336 0
v -560 -336 0
v -560 -320 0
v -544 -320 0
v -496 -336 0
v -512 -336 0
v -512 -320 0
v -496 -320 0
v -272 -336 0
v -288 -336 0
v -288 -320 0
v -272 -320 0
v -656 -352 0
v -672 -352 0
v -672 -336 0
v -656 -336 0
v -544 -352 0
v -560 -352 0
v -560 -336 0
v -544 -336 0
v -496 -352 0
v -512 -352 0
v -512 -336 0
v -496 -336 0
v -480 -352 0
v -496 -352 0
v -496 -336 0
v -480 -336 0
v -464 -352 0
v -480 -352 0
v -480 -336 0
v -464 -336 0
v -448 -352 0
v -464 -352 0
v -464 -336 0
v -448 -336 0
v -432 -352 0
v -448 -352 0
v -448 -336 0
v -432 -336 0
v -416 -352 0
v -432 -352 0
v -432 -336 0
v -416 -336 0
v -400 -352 0
v -416 -352 0
v -416 -336 0
v -400 -336 0
v -384 -352 0
v -400 -352 0
v -400 -336 0
v -384 -336 0
v -368 -352 0
v -384 -352 0
v -384 -336 0
v -368 -336 0
v -352 -352 0
v -368 -352 0
v -368 -336 0
v -352 -336 0
v -336 -352 0
v -352 -352 0
v -352 -336 0
v -336 -336 0
v -320 -352 0
v -336 -352 0
v -336 -336 0
v -320 -336 0
v -304 -352 0
v -320 -352 0
v -320 -336 0
v -304 -336 0
v -288 -352 0
v -304 -352 0
v -304 -336 0
v -288 -336 0
v -272 -352 0
v -288 -352 0
v -288 -336 0
v -272 -336 0
v -160 -352 0
v -176 -352 0
v -176 -336 0
v -160 -336 0
v -656 -368 0
v -672 -368 0
v -672 -352 0
v -656 -352 0
v -400 -368 0
v -416 -368 0
v -416 -352 0
v -400 -352 0
v -368 -368 0
v -384 -368 0
v -384 -352 0
v -368 -352 0
v -160 -368 0
v -176 -368 0
v -176 -352 0
v -160 -352 0
v -400 -384 0
v -416 -384 0
v -416 -368 0
v -400 -368 0
v -368 -384 0
v -384 -384 0
v -384 -368 0
v -368 -368 0
v -304 -384 0
v -320 -384 0
v -320 -368 0
v -304 -368 0
v -592 -400 0
v -608 -400 0
v -608 -384 0
v -592 -384 0
v -400 -400 0
v -416 -400 0
v -416 -384 0
v -400 -384 0
v -368 -400 0
v -384 -400 0
v -384 -384 0
v -368 -384 0
v -304 -400 0
v -320 -400 0
v -320 -384 0
v -304 -384 0
v -128 -400 0
v -144 -400 0
v -144 -384 0
v -128 -384 0
v -592 -416 0
v -608 -416 0
v -608 -400 0
v -592 -400 0
v -496 -416 0
v -512 -416 0
v -512 -400 0
v -496 -400 0
v -400 -416 0
v -416 -416 0
v -416 -400 0
v -400 -400 0
v -368 -416 0
v -384 -416 0
v -384 -400 0
v -368 -400 0
v -272 -416 0
v -288 -416 0
v -288 -400 0
v -272 -400 0
v -128 -416 0
v -144 -416 0
v -144 -400 0
v -128 -400 0
v -496 -432 0
v -512 -432 0
v -512 -416 0
v -496 -416 0
v -400 -432 0
v -416 -432 0
v -416 -416 0
v -400 -416 0
v -368 -432 0
v -384 -432 0
v -384 -416 0
v -368 -416 0
v -272 -432 0
v -288 -432 0
v -288 -416 0
v -272 -416 0
v -544 -448 0
v -560 -448 0
v -560 -432 0
v -544 -432 0
v -400 -448 0
v -416 -448 0
v -416 -432 0
v -400 -432 0
v -384 -448 0
v -400 -448 0
v -400 -432 0
v -384 -432 0
v -368 -448 0
v -384 -448 0
v -384 -432 0
v -368 -432 0
v -192 -448 0
v -208 -448 0
v -208 -432 0
v -192 -432 0
v -544 -464 0
v -560 -464 0
v -560 -448 0
v -544 -448 0
v -192 -464 0
v -208 -464 0
v -208 -448 0
v -192 -448 0
v -464 -496 0
v -480 -496 0
v -480 -480 0
v -464 -480 0
v -304 -496 0
v -320 -496 0
v -320 -480 0
v -304 -480 0
v -288 -496 0
v -304 -496 0
v -304 -480 0
v -288 -480 0
v -464 -512 0
v -480 -512 0
v -480 -496 0
v -464 -496 0
v -352 -512 0
v -368 -512 0
v -368 -496 0
v -352 -496 0
v -320 -512 0
v -336 -512 0
v -336 -496 0
v -320 -496 0
v -304 -512 0
v -320 -512 0
v -320 -496 0
v -304 -496 0
v -288 -512 0
v -304 -512 0
v -304 -496 0
v -288 -496 0
v -272 -512 0
v -288 -512 0
v -288 -496 0
v -272 -496 0
v -352 -528 0
v -368 -528 0
v -368 -512 0
v -352 -512 0
v -320 -528 0
v -336 -528 0
v -336 -512 0
v -320 -512 0
v -304 -528 0
v -320 -528 0
v -320 -512 0
v -304 -512 0
v -288 -528 0
v -304 -528 0
v -304 -512 0
v -288 -512 0
v -272 -528 0
v -288 -528 0
v -288 -512 0
v -272 -512 0
v -320 -544 0
v -336 -544 0
v -336 -528 0
v -320 -528 0
v -304 -544 0
v -320 -544 0
v -320 -528 0
v -304 -528 0
v -288 -544 0
v -304 -544 0
v -304 -528 0
v -288 -528 0
v -272 -544 0
v -288 -544 0
v -288 -528 0
v -272 -528 0

# Texture cooridinates (Count = 100)
vt 0.3161157 0.6463878
vt 0.3326446 0.6463878
vt 0.3326446 0.6768061
vt 0.3161157 0.6768061
vt 0.3161157 0.6140684
vt 0.3326446 0.6140684
vt 0.3326446 0.6444867
vt 0.3161157 0.6444867
vt 0.8605372 0.2262357
vt 0.8770661 0.2262357
vt 0.8770661 0.256654
vt 0.8605372 0.256654
vt 0.9132231 0.2262357
vt 0.9297521 0.2262357
vt 0.9297521 0.256654
vt 0.9132231 0.256654
vt 0.9307851 0.2262357
vt 0.947314 0.2262357
vt 0.947314 0.256654
vt 0.9307851 0.256654
vt 0.8429752 0.2262357
vt 0.8595041 0.2262357
vt 0.8595041 0.256654
vt 0.8429752 0.256654
vt 0.8780992 0.2262357
vt 0.8946281 0.2262357
vt 0.8946281 0.256654
vt 0.8780992 0.256654
vt 0.8956612 0.2262357
vt 0.9121901 0.2262357
vt 0.9121901 0.256654
vt 0.8956612 0.256654
vt 0.07024793 0.9695817
vt 0.08677686 0.9695817
vt 0.08677686 1
vt 0.07024793 1
vt 0.05268595 0.9695817
vt 0.06921487 0.9695817
vt 0.06921487 1
vt 0.05268595 1
vt 0.03512397 0.9695817
vt 0.05165289 0.9695817
vt 0.05165289 1
vt 0.03512397 1
vt 0.07024793 0.9372624
vt 0.08677686 0.9372624
vt 0.08677686 0.9676806
vt 0.07024793 0.9676806
vt 0 0.9695817
vt 0.01652892 0.9695817
vt 0.01652892 1
vt 0 1
vt 0.01756198 0.9695817
vt 0.03409091 0.9695817
vt 0.03409091 1
vt 0.01756198 1
vt 0.03512397 0.9372624
vt 0.05165289 0.9372624
vt 0.05165289 0.9676806
vt 0.03512397 0.9676806
vt 0.07024793 0.904943
vt 0.08677686 0.904943
vt 0.08677686 0.9353612
vt 0.07024793 0.9353612
vt 0.05268595 0.904943
vt 0.06921487 0.904943
vt 0.06921487 0.9353612
vt 0.05268595 0.9353612
vt 0.03512397 0.904943
vt 0.05165289 0.904943
vt 0.05165289 0.9353612
vt 0.03512397 0.9353612
vt 0.7902893 0.2262357
vt 0.8068182 0.2262357
vt 0.8068182 0.256654
vt 0.7902893 0.256654
vt 0.4390496 0.2585551
vt 0.4555785 0.2585551
vt 0.4555785 0.2889734
vt 0.4390496 0.2889734
vt 0.4566116 0.2585551
vt 0.4731405 0.2585551
vt 0.4731405 0.2889734
vt 0.4566116 0.2889734
vt 0.4214876 0.2585551
vt 0.4380165 0.2585551
vt 0.4380165 0.2889734
vt 0.4214876 0.2889734
vt 0.4566116 0.2262357
vt 0.4731405 0.2262357
vt 0.4731405 0.256654
vt 0.4566116 0.256654
vt 0.4390496 0.2262357
vt 0.4555785 0.2262357
vt 0.4555785 0.256654
vt 0.4390496 0.256654
vt 0.4214876 0.2262357
vt 0.4380165 0.2262357
vt 0.4380165 0.256654
vt 0.4214876 0.256654

# Normal
vn 0 0 -1

# Mesh description
g TestRPG_mesh_0003

# Faces
f 1/1/1 2/2/1 3/3/1 4/4/1
f 5/5/1 6/6/1 7/7/1 8/8/1
f 9/1/1 10/2/1 11/3/1 12/4/1
f 13/1/1 14/2/1 15/3/1 16/4/1
f 17/1/1 18/2/1 19/3/1 20/4/1
f 21/1/1 22/2/1 23/3/1 24/4/1
f 25/5/1 26/6/1 27/7/1 28/8/1
f 29/5/1 30/6/1 31/7/1 32/8/1
f 33/5/1 34/6/1 35/7/1 36/8/1
f 37/5/1 38/6/1 39/7/1 40/8/1
f 41/1/1 42/2/1 43/3/1 44/4/1
f 45/5/1 46/6/1 47/7/1 48/8/1
f 49/9/1 50/10/1 51/11/1 52/12/1
f 53/13/1 54/14/1 55/15/1 56/16/1
f 57/13/1 58/14/1 59/15/1 60/16/1
f 61/17/1 62/18/1 63/19/1 64/20/1
f 65/13/1 66/14/1 67/15/1 68/16/1
f 69/13/1 70/14/1 71/15/1 72/16/1
f 73/17/1 74/18/1 75/19/1 76/20/1
f 77/13/1 78/14/1 79/15/1 80/16/1
f 81/17/1 82/18/1 83/19/1 84/20/1
f 85/13/1 86/14/1 87/15/1 88/16/1
f 89/13/1 90/14/1 91/15/1 92/16/1
f 93/17/1 94/18/1 95/19/1 96/20/1
f 97/13/1 98/14/1 99/15/1 100/16/1
f 101/13/1 102/14/1 103/15/1 104/16/1
f 105/21/1 106/22/1 107/23/1 108/24/1
f 109/1/1 110/2/1 111/3/1 112/4/1
f 113/25/1 114/26/1 115/27/1 116/28/1
f 117/29/1 118/30/1 119/31/1 120/32/1
f 121/5/1 122/6/1 123/7/1 124/8/1
f 125/25/1 126/26/1 127/27/1 128/28/1
f 129/29/1 130/30/1 131/31/1 132/32/1
f 133/25/1 134/26/1 135/27/1 136/28/1
f 137/29/1 138/30/1 139/31/1 140/32/1
f 141/1/1 142/2/1 143/3/1 144/4/1
f 145/33/1 146/34/1 147/35/1 148/36/1
f 149/37/1 150/38/1 151/39/1 152/40/1
f 153/37/1 154/38/1 155/39/1 156/40/1
f 157/37/1 158/38/1 159/39/1 160/40/1
f 161/37/1 162/38/1 163/39/1 164/40/1
f 165/41/1 166/42/1 167/43/1 168/44/1
f 169/1/1 170/2/1 171/3/1 172/4/1
f 173/25/1 174/26/1 175/27/1 176/28/1
f 177/29/1 178/30/1 179/31/1 180/32/1
f 181/5/1 182/6/1 183/7/1 184/8/1
f 185/1/1 186/2/1 187/3/1 188/4/1
f 189/45/1 190/46/1 191/47/1 192/48/1
f 193/49/1 194/50/1 195/51/1 196/52/1
f 197/53/1 198/54/1 199/55/1 200/56/1
f 201/53/1 202/54/1 203/55/1 204/56/1
f 205/53/1 206/54/1 207/55/1 208/56/1
f 209/57/1 210/58/1 211/59/1 212/60/1
f 213/5/1 214/6/1 215/7/1 216/8/1
f 217/25/1 218/26/1 219/27/1 220/28/1
f 221/29/1 222/30/1 223/31/1 224/32/1
f 225/5/1 226/6/1 227/7/1 228/8/1
f 229/45/1 230/46/1 231/47/1 232/48/1
f 233/49/1 234/50/1 235/51/1 236/52/1
f 237/53/1 238/54/1 239/55/1 240/56/1
f 241/53/1 242/54/1 243/55/1 244/56/1
f 245/49/1 246/50/1 247/51/1 248/52/1
f 249/57/1 250/58/1 251/59/1 252/60/1
f 253/25/1 254/26/1 255/27/1 256/28/1
f 257/29/1 258/30/1 259/31/1 260/32/1
f 261/45/1 262/46/1 263/47/1 264/48/1
f 265/49/1 266/50/1 267/51/1 268/52/1
f 269/53/1 270/54/1 271/55/1 272/56/1
f 273/49/1 274/50/1 275/51/1 276/52/1
f 277/53/1 278/54/1 279/55/1 280/56/1
f 281/57/1 282/58/1 283/59/1 284/60/1
f 285/25/1 286/26/1 287/27/1 288/28/1
f 289/29/1 290/30/1 291/31/1 292/32/1
f 293/61/1 294/62/1 295/63/1 296/64/1
f 297/65/1 298/66/1 299/67/1 300/68/1
f 301/65/1 302/66/1 303/67/1 304/68/1
f 305/65/1 306/66/1 307/67/1 308/68/1
f 309/65/1 310/66/1 311/67/1 312/68/1
f 313/69/1 314/70/1 315/71/1 316/72/1
f 317/1/1 318/2/1 319/3/1 320/4/1
f 321/25/1 322/26/1 323/27/1 324/28/1
f 325/29/1 326/30/1 327/31/1 328/32/1
f 329/1/1 330/2/1 331/3/1 332/4/1
f 333/5/1 334/6/1 335/7/1 336/8/1
f 337/9/1 338/10/1 339/11/1 340/12/1
f 341/13/1 342/14/1 343/15/1 344/16/1
f 345/13/1 346/14/1 347/15/1 348/16/1
f 349/17/1 350/18/1 351/19/1 352/20/1
f 353/13/1 354/14/1 355/15/1 356/16/1
f 357/13/1 358/14/1 359/15/1 360/16/1
f 361/9/1 362/10/1 363/11/1 364/12/1
f 365/73/1 366/74/1 367/75/1 368/76/1
f 369/21/1 370/22/1 371/23/1 372/24/1
f 373/13/1 374/14/1 375/15/1 376/16/1
f 377/13/1 378/14/1 379/15/1 380/16/1
f 381/17/1 382/18/1 383/19/1 384/20/1
f 385/13/1 386/14/1 387/15/1 388/16/1
f 389/13/1 390/14/1 391/15/1 392/16/1
f 393/21/1 394/22/1 395/23/1 396/24/1
f 397/1/1 398/2/1 399/3/1 400/4/1
f 401/5/1 402/6/1 403/7/1 404/8/1
f 405/25/1 406/26/1 407/27/1 408/28/1
f 409/29/1 410/30/1 411/31/1 412/32/1
f 413/5/1 414/6/1 415/7/1 416/8/1
f 417/25/1 418/26/1 419/27/1 420/28/1
f 421/29/1 422/30/1 423/31/1 424/32/1
f 425/1/1 426/2/1 427/3/1 428/4/1
f 429/1/1 430/2/1 431/3/1 432/4/1
f 433/25/1 434/26/1 435/27/1 436/28/1
f 437/29/1 438/30/1 439/31/1 440/32/1
f 441/5/1 442/6/1 443/7/1 444/8/1
f 445/1/1 446/2/1 447/3/1 448/4/1
f 449/5/1 450/6/1 451/7/1 452/8/1
f 453/1/1 454/2/1 455/3/1 456/4/1
f 457/25/1 458/26/1 459/27/1 460/28/1
f 461/29/1 462/30/1 463/31/1 464/32/1
f 465/1/1 466/2/1 467/3/1 468/4/1
f 469/5/1 470/6/1 471/7/1 472/8/1
f 473/5/1 474/6/1 475/7/1 476/8/1
f 477/25/1 478/26/1 479/27/1 480/28/1
f 481/29/1 482/30/1 483/31/1 484/32/1
f 485/5/1 486/6/1 487/7/1 488/8/1
f 489/1/1 490/2/1 491/3/1 492/4/1
f 493/9/1 494/10/1 495/11/1 496/12/1
f 497/73/1 498/74/1 499/75/1 500/76/1
f 501/21/1 502/22/1 503/23/1 504/24/1
f 505/1/1 506/2/1 507/3/1 508/4/1
f 509/5/1 510/6/1 511/7/1 512/8/1
f 513/5/1 514/6/1 515/7/1 516/8/1
f 517/1/1 518/2/1 519/3/1 520/4/1
f 521/77/1 522/78/1 523/79/1 524/80/1
f 525/77/1 526/78/1 527/79/1 528/80/1
f 529/5/1 530/6/1 531/7/1 532/8/1
f 533/1/1 534/2/1 535/3/1 536/4/1
f 537/77/1 538/78/1 539/79/1 540/80/1
f 541/77/1 542/78/1 543/79/1 544/80/1
f 545/77/1 546/78/1 547/79/1 548/80/1
f 549/77/1 550/78/1 551/79/1 552/80/1
f 553/5/1 554/6/1 555/7/1 556/8/1
f 557/81/1 558/82/1 559/83/1 560/84/1
f 561/77/1 562/78/1 563/79/1 564/80/1
f 565/77/1 566/78/1 567/79/1 568/80/1
f 569/85/1 570/86/1 571/87/1 572/88/1
f 573/89/1 574/90/1 575/91/1 576/92/1
f 577/93/1 578/94/1 579/95/1 580/96/1
f 581/93/1 582/94/1 583/95/1 584/96/1
f 585/97/1 586/98/1 587/99/1 588/100/1

